<?xml version="1.0" encoding="UTF-8"?>
<svg enable-background="new 0 0 371.4 75.1" version="1.1" viewBox="0 0 371.4 75.1" xml:space="preserve" xmlns="http://www.w3.org/2000/svg">
<style type="text/css">
	.st0{fill:#222222;}
</style>
	<polygon class="st0" points="0 0 0 60.1 15 45 15 15 70.2 15 70.2 0"/>
	<rect class="st0" x="30" y="30" width="30.2" height="15"/>
	<polygon class="st0" points="0 60.1 15 75.1 70.2 75.1 70.2 60.1"/>
		<polygon class="st0" points="100.3 15 132.8 15 132.8 19.6 105.4 19.6 105.4 35 129.9 35 129.9 39.7 105.4 39.7 105.4 55.4 133.1 55.4 133.1 60 100.3 60"/>
		<polygon class="st0" points="152.6 43.1 140 26.8 145.7 26.8 155.5 39.7 165.4 26.8 170.9 26.8 158.3 43 171.4 60 165.7 60 155.4 46.5 145.1 60 139.5 60"/>
			<path class="st0" d="m181.2 51.2v-20h-4.6v-4.4h4.6v-10h4.9v10h10.6v4.4h-10.6v19.4c0 4.1 2.3 5.5 5.6 5.5 1.7 0 3.1-0.3 4.8-1.2v4.2c-1.7 0.9-3.6 1.4-6 1.4-5.2 0.1-9.3-2.5-9.3-9.3"/>
			<path class="st0" d="m205.5 26.8h5v8.7c2.4-5.5 7.3-9.5 13.6-9.3v5.3h-0.4c-7.3 0-13.2 5.2-13.2 15.2v13.3h-5v-33.2z"/>
			<path class="st0" d="m254.5 41.5c-0.6-6-4.1-11.2-10.6-11.2-5.7 0-10.1 4.8-10.8 11.2h21.4zm-9.7 15c4.6 0 7.8-1.9 10.5-4.7l3.1 2.8c-3.3 3.7-7.4 6.2-13.7 6.2-9.1 0-16.6-7-16.6-17.4 0-9.6 6.8-17.4 16-17.4 9.8 0 15.5 7.8 15.5 17.6 0 0.5 0 1-0.1 1.7h-26.4c0.7 7.2 5.9 11.2 11.7 11.2"/>
			<path class="st0" d="m268.2 26.8h5v5.6c2.2-3.3 5.1-6.3 10.7-6.3 5.4 0 8.9 2.9 10.7 6.6 2.4-3.7 5.9-6.6 11.7-6.6 7.7 0 12.3 5.1 12.3 13.4v20.5h-5v-19.4c0-6.4-3.2-10-8.6-10-5 0-9.2 3.7-9.2 10.3v19.1h-4.8v-19.5c0-6.2-3.3-9.9-8.6-9.9s-9.3 4.4-9.3 10.5v19h-5v-33.3z"/>
			<path class="st0" d="m353.5 41.5c-0.6-6-4.1-11.2-10.6-11.2-5.7 0-10.1 4.8-10.8 11.2h21.4zm-9.7 15c4.6 0 7.8-1.9 10.5-4.7l3.1 2.8c-3.3 3.7-7.4 6.2-13.7 6.2-9.1 0-16.6-7-16.6-17.4 0-9.6 6.8-17.4 16-17.4 9.8 0 15.5 7.8 15.5 17.6 0 0.5 0 1-0.1 1.7h-26.4c0.7 7.2 5.9 11.2 11.7 11.2"/>
			<path class="st0" d="m362 29c0-2.6 2.1-4.7 4.7-4.7s4.7 2.1 4.7 4.7-2.1 4.7-4.7 4.7c-2.7 0-4.7-2.1-4.7-4.7zm9 0c0-2.4-1.8-4.3-4.3-4.3s-4.3 2-4.3 4.3c0 2.4 1.8 4.3 4.3 4.3 2.4 0 4.3-2 4.3-4.3zm-6.2-2.6h2.2c0.6 0 1.1 0.2 1.4 0.5 0.2 0.2 0.4 0.5 0.4 0.9 0 0.8-0.5 1.3-1.3 1.4l1.5 1.9h-0.9l-1.4-1.8h-1.2v1.8h-0.7v-4.7zm2.1 2.4c0.7 0 1.1-0.3 1.1-0.9 0-0.5-0.4-0.8-1.1-0.8h-1.4v1.7h1.4z"/>
</svg>
