<?xml version="1.0" encoding="UTF-8" standalone="no"?>
<svg width="101px" height="25px" viewBox="0 0 101 25" version="1.1" xmlns="http://www.w3.org/2000/svg" xmlns:xlink="http://www.w3.org/1999/xlink">
  <g id="st2flow-logo-white" fill="#FFFFFF">
    <path d="M11.5228311,0.0287558685 L23.1015982,0.0287558685 L23.1015982,9.80575117 L11.5228311,0.0287558685 L11.5228311,0.0287558685 Z" id="Shape"></path>
    <path d="M0.335616438,14.2916667 L12.8652968,24.4712441 L0.335616438,24.4712441 L0.335616438,14.2916667 L0.335616438,14.2916667 Z" id="Shape"></path>
    <path d="M21.9269406,11.588615 C21.9269406,11.588615 25.1152968,14.3491784 24.3881279,18.0874413 C23.2694064,25.2764085 16.3333333,24.3562207 16.3333333,24.3562207 C16.3333333,24.3562207 4.69863014,16.3045775 2.40525114,12.911385 C-3.80365297,5.95246479 3.69178082,-0.833920188 8.39041096,0.20129108 C9.11757991,-0.143779343 21.9269406,11.588615 21.9269406,11.588615 L21.9269406,11.588615 Z" id="Shape"></path>
    <path d="M30.1886612,21.9220338 L30.2262588,23.076819 L30.2796526,24.7167695 L30.9000876,23.1977735 L31.3673727,22.0537305 L33.8986938,16.3210574 L33.5785149,16.5296875 L34.1693352,16.5296875 L33.8220827,16.2234561 L34.5525514,22.0188663 L34.6422983,23.1103286 L34.7739899,24.7061213 L35.3201252,23.2009192 L35.7605549,21.987052 L38.0127484,16.3087202 L37.6874016,16.5296875 L38.3749016,16.5296875 L38.0505219,16.0482424 L34.8815766,23.8685549 L35.2059563,23.65 L34.5775383,23.65 L34.9248356,23.9565878 L34.1567692,17.8120566 L34.0992165,17.1071072 L33.9782529,15.6335499 L33.4257462,17.0049505 L33.1249649,17.7515325 L30.411978,23.8579037 L30.7318352,23.65 L30.1034172,23.65 L30.4519443,23.967924 L29.7322178,16.1476115 L29.3836907,16.5296875 L30.0389641,16.5296875 L29.690286,16.2100784 L30.1897978,21.9410354 L30.1886612,21.9220338 Z M30.8871539,21.8802537 L30.3876422,16.1492966 L30.359785,15.8296875 L30.0389641,15.8296875 L29.3836907,15.8296875 L29,15.8296875 L29.0351636,16.2117635 L29.7548901,24.032076 L29.7841496,24.35 L30.1034172,24.35 L30.7318352,24.35 L30.9593313,24.35 L31.0516924,24.1420963 L33.7694658,18.0244206 L34.0750336,17.2665339 L33.4015632,17.1643772 L33.4606453,17.8841038 L34.2302411,24.0434122 L34.2685646,24.35 L34.5775383,24.35 L35.2059563,24.35 L35.4417732,24.35 L35.530336,24.1314451 L38.6992813,16.3111326 L38.8943724,15.8296875 L38.3749016,15.8296875 L37.6874016,15.8296875 L37.4496905,15.8296875 L37.3620548,16.0506548 L35.1061954,21.738643 L34.6620999,22.9621667 L35.3399268,23.0527573 L35.2486182,21.946312 L34.5165877,16.1359189 L34.4779895,15.8296875 L34.1693352,15.8296875 L33.5785149,15.8296875 L33.3504533,15.8296875 L33.258336,16.0383176 L30.7231797,21.7800168 L30.2520594,22.9330859 L30.9258881,23.0540404 L30.8882905,21.8992552 L30.8871539,21.8802537 Z M38.5507487,21.0803936 C38.6095943,20.5671292 38.765549,20.1000775 39.0190784,19.6759033 C39.2689548,19.2578409 39.5753214,18.9451737 39.9397649,18.7324513 C40.3009873,18.521609 40.6892925,18.4216493 41.1118118,18.4309696 C41.5219913,18.4371005 41.8587157,18.5454123 42.1356459,18.7549415 C42.4177386,18.9683767 42.6243928,19.2603881 42.7579158,19.6394706 C42.896231,20.0321587 42.9435873,20.4712075 42.8979982,20.9596622 L42.8876645,21.0575986 C42.7893226,21.8965744 42.4962444,22.5602392 42.0105908,23.0571125 C41.5355477,23.5431302 40.9782066,23.7731196 40.3167478,23.7575192 C39.7626378,23.7483767 39.3383723,23.5530104 39.0145528,23.1638328 C38.6809966,22.7629534 38.5143521,22.2240841 38.5207849,21.5325525 L38.5364296,21.2415401 L38.5516721,21.0712902 L38.5507487,21.0803936 Z M37.8543812,21.0097645 L37.8382679,21.1923817 L37.8212838,21.5109013 C37.8129251,22.3742309 38.0294147,23.0742815 38.4764614,23.6115578 C38.9332447,24.1605359 39.550961,24.4449826 40.3027269,24.4573743 C41.1570209,24.4775316 41.9012618,24.170417 42.5111851,23.5464031 C43.1104978,22.9332449 43.4673155,22.1252447 43.5833627,21.1349751 L43.5945606,21.0288272 C43.6496409,20.4389434 43.5913667,19.8986725 43.418157,19.4069161 C43.2401549,18.901554 42.9526735,18.4953302 42.558005,18.1967186 C42.158174,17.894201 41.6767099,17.7393318 41.1247538,17.7310937 C40.5758053,17.7189756 40.0599855,17.8517609 39.5868938,18.1279002 C39.1170232,18.4021595 38.726945,18.8002599 38.4182248,19.3167725 C38.1131577,19.8271733 37.9253658,20.3895709 37.8553045,21.0006611 L37.8543812,21.0097645 Z M38.4781435,21.1851354 C38.4266253,21.656725 38.4617321,22.0970651 38.5851512,22.5037409 C38.7130229,22.9250888 38.9233429,23.2648364 39.2169568,23.5146274 C39.5196654,23.7721556 39.8952792,23.9071067 40.3302266,23.9201551 C40.7894394,23.9286821 41.2107291,23.8113609 41.5895261,23.5701159 C41.9605178,23.3338419 42.2642724,23.002286 42.4994266,22.5806302 C42.7288302,22.1692857 42.8768,21.7155118 42.9434385,21.2216029 L42.9612572,21.0292461 C43.0323519,20.2669631 42.9114031,19.6256293 42.5888921,19.1158539 C42.2483153,18.5775229 41.7377521,18.2921078 41.0944453,18.2789791 C40.4203156,18.257892 39.8274374,18.5227038 39.3428982,19.0571526 C38.8741362,19.5741991 38.5908171,20.2531708 38.4893944,21.0840566 L38.4782142,21.1844935 L38.4781435,21.1851354 Z M39.1739328,21.2617956 L39.184675,21.1651159 C39.2690131,20.4743606 39.4959428,19.9305256 39.8614949,19.5273201 C40.2112698,19.1415169 40.6084533,18.964113 41.0763718,18.9787355 C41.4895954,18.9871892 41.7828979,19.1511511 41.9973369,19.4901031 C42.2298417,19.8576107 42.3219441,20.3459857 42.2642069,20.9650572 L42.2480187,21.1431172 C42.1946172,21.5364459 42.074035,21.9062314 41.8880719,22.2396823 C41.7078595,22.5628219 41.4834618,22.8077576 41.2134998,22.9796888 C40.951343,23.1466489 40.6654458,23.2262659 40.3472023,23.2203725 C40.0700153,23.2120338 39.8476532,23.1321433 39.6705417,22.9814663 C39.4843356,22.8230521 39.3455379,22.5988406 39.2549841,22.3004583 C39.1599776,21.987404 39.1324223,21.6417819 39.1740035,21.2611537 L39.1739328,21.2617956 Z M47.6996266,18.3880961 C47.5396723,18.355285 47.377626,18.336824 47.213727,18.3327265 C46.7218174,18.3326172 46.2753992,18.4810672 45.8757663,18.7734303 C45.4748359,19.0667425 45.2017429,19.4462772 45.0649669,19.903622 L44.3678598,23.9406568 L44.7127922,23.65 L44.0790032,23.65 L44.4238366,24.0599156 L45.4336023,18.2483922 L45.0887688,18.5384766 L45.7171868,18.5384766 L45.37461,18.1167745 L45.1812507,19.0406026 L44.7694126,21.0082735 L45.8220144,19.2955655 C46.0048403,18.9980861 46.2202901,18.7773445 46.4690173,18.6284061 C46.7112218,18.4833734 46.9749567,18.4143855 47.2678054,18.4202425 C47.3630134,18.4203125 47.4772484,18.439816 47.6153168,18.4809428 L47.7152336,18.1455078 L47.3689445,18.0946764 L47.283007,18.6801256 L47.6292961,18.730957 L47.6996266,18.3880961 L47.6996266,18.3880961 Z M47.5589657,19.073818 L47.9217936,19.1482442 L47.9755853,18.7817885 L48.0615228,18.1963392 L48.1055259,17.8965677 L47.8151504,17.8100728 C47.6166287,17.7509387 47.4372468,17.7203125 47.274804,17.7203125 C46.8585018,17.7119165 46.4651795,17.8148019 46.1093992,18.0278439 C45.7601416,18.2369802 45.4653427,18.5390198 45.2256404,18.9290439 L45.8664041,19.1840068 L46.0597635,18.2601787 L46.1480267,17.8384766 L45.7171868,17.8384766 L45.0887688,17.8384766 L44.7943382,17.8384766 L44.7439353,18.128561 L43.7341697,23.9400844 L43.6629459,24.35 L44.0790032,24.35 L44.7127922,24.35 L45.0077192,24.35 L45.0577247,24.0593432 L45.7452247,20.0632495 C45.8280094,19.7952554 46.0096645,19.5427977 46.289076,19.3383861 C46.569785,19.1330253 46.8717318,19.0326172 47.2049797,19.0326172 C47.3187932,19.0355719 47.4396217,19.0493372 47.5589657,19.073818 L47.5589657,19.073818 Z M49.3747827,20.8159941 L48.5154077,21.5410917 L48.4181183,21.6231797 L48.3962946,21.7485887 L48.014947,23.9399949 L48.3597649,23.65 L47.7206047,23.65 L48.0654338,24.059941 L49.4995158,15.809941 L49.1546868,16.1 L49.7938469,16.1 L49.4490592,15.6898215 L48.5359733,20.9212668 L48.3587205,21.9368209 L49.1176407,21.239104 L49.7836564,20.6267993 L52.3050795,18.4535796 L52.0765618,18.5384766 L52.9305657,18.5384766 L52.7013589,17.923969 L49.843937,20.4000432 L49.6216716,20.5926454 L49.7731066,20.8447664 L51.7765245,24.1802156 L52.0765618,23.65 L51.3675774,23.65 L51.6669188,23.8186311 L49.899829,20.9021271 L49.687681,20.5519862 L49.3747827,20.8159941 L49.3747827,20.8159941 Z M49.8261924,21.3509981 L49.3011461,21.264865 L51.0682359,24.1813689 L51.1704083,24.35 L51.3675774,24.35 L52.0765618,24.35 L52.6950699,24.35 L52.376599,23.8197844 L50.373181,20.4843352 L50.3023506,20.9290584 L53.1597724,18.4529841 L53.8689222,17.8384766 L52.9305657,17.8384766 L52.0765618,17.8384766 L51.9465328,17.8384766 L51.848044,17.9233735 L49.3182589,20.1040375 L48.6438812,20.7237866 L49.2255487,21.0416239 L50.1386346,15.8101785 L50.2102263,15.4 L49.7938469,15.4 L49.1546868,15.4 L48.8602781,15.4 L48.8098577,15.690059 L47.3757757,23.940059 L47.3045164,24.35 L47.7206047,24.35 L48.3597649,24.35 L48.654118,24.35 L48.7045828,24.0600051 L49.0859305,21.8685988 L48.9668174,22.0760958 L49.8261924,21.3509981 L49.8261924,21.3509981 Z M53.7910225,24.059925 L54.7094795,18.7747688 L54.7807165,18.3648438 L54.3646477,18.3648438 L53.4300774,18.3648438 L53.7743189,18.7780718 L53.8709986,18.2517046 L53.5267571,18.5384766 L54.4559563,18.5384766 L54.7595097,18.5384766 L54.8024386,18.237974 L54.9152316,17.4484233 C54.9921945,16.9591616 55.173561,16.5919505 55.455698,16.3375887 C55.733734,16.086924 56.0784501,15.9650909 56.5082246,15.97106 C56.6827675,15.9771529 56.8937134,16.0093584 57.1329068,16.0683376 L57.2166985,15.7285156 L56.8743165,15.6558892 L56.7615236,16.1876274 L57.1039055,16.2602539 L57.1944631,15.9221721 C56.9652975,15.8607884 56.7434442,15.8296875 56.5291985,15.8296875 C56.0807564,15.8296875 55.6953778,15.9810447 55.3937451,16.2803748 C55.101602,16.5702879 54.9221121,16.9640778 54.8508663,17.4502256 L54.7489098,18.1370865 L54.6893284,18.5384766 L55.0951165,18.5384766 L56.443261,18.5384766 L56.0990195,18.1252485 L56.0023398,18.6516157 L56.3465813,18.3648438 L55.009179,18.3648438 L54.7147565,18.3648438 L54.6643471,18.6549187 L53.7458901,23.940075 L54.0907219,23.65 L53.4461907,23.65 L53.7910225,24.059925 L53.7910225,24.059925 Z M53.1013588,23.940075 L53.0301219,24.35 L53.4461907,24.35 L54.0907219,24.35 L54.3851444,24.35 L54.4355538,24.059925 L55.3540108,18.7747688 L55.009179,19.0648438 L56.3465813,19.0648438 L56.6381504,19.0648438 L56.6908228,18.7780718 L56.7875025,18.2517046 L56.8634015,17.8384766 L56.443261,17.8384766 L55.0951165,17.8384766 L55.4413231,18.2398666 L55.5433739,17.5523666 C55.5939678,17.2071421 55.7098851,16.9528264 55.8868198,16.7772424 C56.054265,16.6110754 56.2614911,16.5296875 56.5291985,16.5296875 C56.680189,16.5296875 56.8414699,16.552297 57.0133479,16.5983357 L57.3697298,16.6937952 L57.4462875,16.3328804 L57.5590804,15.8011421 L57.6293679,15.4697868 L57.3004902,15.3886937 C57.0168945,15.318766 56.7587696,15.2793576 56.525147,15.2713017 C55.9164651,15.2627736 55.4000245,15.4452994 54.9869763,15.8176848 C54.5780291,16.186373 54.3243414,16.7000123 54.222997,17.3445622 L54.109474,18.1389791 L54.4559563,17.8384766 L53.5267571,17.8384766 L53.235188,17.8384766 L53.1825156,18.1252485 L53.0858359,18.6516157 L53.0099369,19.0648438 L53.4300774,19.0648438 L54.3646477,19.0648438 L54.0198159,18.6549187 L53.1013588,23.940075 L53.1013588,23.940075 Z M57.302636,23.65 L56.6581047,23.65 L57.0029338,24.059941 L58.4370158,15.809941 L58.0921868,16.1 L58.736718,16.1 L58.391889,15.690059 L56.9578069,23.940059 L57.302636,23.65 L57.302636,23.65 Z M57.302636,24.35 L57.5970446,24.35 L57.647465,24.059941 L59.0815471,15.809941 L59.1528063,15.4 L58.736718,15.4 L58.0921868,15.4 L57.7977781,15.4 L57.7473577,15.690059 L56.3132757,23.940059 L56.2420164,24.35 L56.6581047,24.35 L57.302636,24.35 L57.302636,24.35 Z M59.535612,21.0803936 C59.5944576,20.5671292 59.7504123,20.1000775 60.0039417,19.6759033 C60.2538181,19.2578409 60.5601847,18.9451737 60.9246281,18.7324513 C61.2858506,18.521609 61.6741558,18.4216493 62.0966751,18.4309696 C62.5068546,18.4371005 62.843579,18.5454123 63.1205092,18.7549415 C63.4026019,18.9683767 63.6092561,19.2603881 63.7427791,19.6394706 C63.8810943,20.0321587 63.9284506,20.4712075 63.8828615,20.9596622 L63.8725278,21.0575986 C63.7741859,21.8965744 63.4811077,22.5602392 62.995454,23.0571125 C62.520411,23.5431302 61.9630699,23.7731196 61.3016111,23.7575192 C60.7475011,23.7483767 60.3232356,23.5530104 59.9994161,23.1638328 C59.6658599,22.7629534 59.4992153,22.2240841 59.5056482,21.5325525 L59.5212929,21.2415401 L59.5365353,21.0712902 L59.535612,21.0803936 Z M58.8392444,21.0097645 L58.8231312,21.1923817 L58.8061471,21.5109013 C58.7977883,22.3742309 59.014278,23.0742815 59.4613246,23.6115578 C59.918108,24.1605359 60.5358243,24.4449826 61.2875902,24.4573743 C62.1418842,24.4775316 62.8861251,24.170417 63.4960484,23.5464031 C64.0953611,22.9332449 64.4521787,22.1252447 64.568226,21.1349751 L64.5794238,21.0288272 C64.6345042,20.4389434 64.57623,19.8986725 64.4030202,19.4069161 C64.2250182,18.901554 63.9375368,18.4953302 63.5428683,18.1967186 C63.1430373,17.894201 62.6615732,17.7393318 62.1096171,17.7310937 C61.5606686,17.7189756 61.0448487,17.8517609 60.5717571,18.1279002 C60.1018865,18.4021595 59.7118083,18.8002599 59.4030881,19.3167725 C59.098021,19.8271733 58.9102291,20.3895709 58.8401678,21.0006611 L58.8392444,21.0097645 Z M59.4630067,21.1851354 C59.4114886,21.656725 59.4465954,22.0970651 59.5700144,22.5037409 C59.6978862,22.9250888 59.9082062,23.2648364 60.2018201,23.5146274 C60.5045287,23.7721556 60.8801425,23.9071067 61.3150899,23.9201551 C61.7743027,23.9286821 62.1955924,23.8113609 62.5743893,23.5701159 C62.9453811,23.3338419 63.2491357,23.002286 63.4842899,22.5806302 C63.7136935,22.1692857 63.8616633,21.7155118 63.9283018,21.2216029 L63.9461205,21.0292461 C64.0172152,20.2669631 63.8962664,19.6256293 63.5737554,19.1158539 C63.2331786,18.5775229 62.7226154,18.2921078 62.0793086,18.2789791 C61.4051788,18.257892 60.8123007,18.5227038 60.3277615,19.0571526 C59.8589995,19.5741991 59.5756804,20.2531708 59.4742577,21.0840566 L59.4630775,21.1844935 L59.4630067,21.1851354 Z M60.1587961,21.2617956 L60.1695383,21.1651159 C60.2538764,20.4743606 60.4808061,19.9305256 60.8463582,19.5273201 C61.196133,19.1415169 61.5933166,18.964113 62.0612351,18.9787355 C62.4744587,18.9871892 62.7677612,19.1511511 62.9822002,19.4901031 C63.214705,19.8576107 63.3068074,20.3459857 63.2490702,20.9650572 L63.232882,21.1431172 C63.1794805,21.5364459 63.0588982,21.9062314 62.8729352,22.2396823 C62.6927227,22.5628219 62.4683251,22.8077576 62.1983631,22.9796888 C61.9362063,23.1466489 61.6503091,23.2262659 61.3320656,23.2203725 C61.0548785,23.2120338 60.8325165,23.1321433 60.655405,22.9814663 C60.4691988,22.8230521 60.3304012,22.5988406 60.2398474,22.3004583 C60.1448409,21.987404 60.1172856,21.6417819 60.1588668,21.2611537 L60.1587961,21.2617956 Z M66.3037102,22.6625977 L66.3037102,23.1191406 L66.3037102,24.858788 L66.9764782,23.254495 L67.1859509,22.7549832 L69.3004471,18.3396214 L68.9847649,18.5384766 L69.5326165,18.5384766 L69.1855097,18.2333864 L69.7602167,22.6752809 L69.790154,23.1987754 L69.8825868,24.7701327 L70.4647342,23.3076649 L70.684949,22.7544422 L72.6037515,18.327661 L72.2826165,18.5384766 L72.9647454,18.5384766 L72.6463594,18.0431137 L69.9930391,23.8546371 L70.311425,23.65 L69.7635735,23.65 L70.110255,23.9519171 L69.4710948,19.3435187 L69.4689936,19.0635034 L69.4384384,17.2301892 L68.7915482,18.9458546 L68.668013,19.2734913 L66.4567209,23.8477556 L66.7718743,23.65 L66.2240227,23.65 L66.5720624,23.9630087 L65.9543866,18.1514853 L65.6094718,18.5384626 L66.2110343,18.5330915 L65.8596299,18.2177664 L66.3054307,22.6972586 L66.3037102,22.6625977 Z M67.0019897,22.6279367 L66.5561889,18.1484446 L66.5245235,17.8302646 L66.2047845,17.8331194 L65.603222,17.8384905 L65.2175435,17.8419341 L65.2583072,18.2254678 L65.875983,24.0369913 L65.909251,24.35 L66.2240227,24.35 L66.7718743,24.35 L66.9914958,24.35 L67.0870276,24.1522444 L69.3106604,19.5492171 L69.4465363,19.1928173 L69.1190422,19.0693359 L68.7690908,19.0751685 L68.7744619,19.3974341 L69.416892,24.0480829 L69.4587663,24.35 L69.7635735,24.35 L70.311425,24.35 L70.5363815,24.35 L70.629811,24.1453629 L73.2831313,18.3338395 L73.5092952,17.8384766 L72.9647454,17.8384766 L72.2826165,17.8384766 L72.0528519,17.8384766 L71.9614814,18.0492921 L70.0386299,22.4858156 L69.8143659,23.0487804 L70.4889461,23.1576699 L70.4567195,22.6098184 L69.8797232,18.1435667 L69.8402496,17.8384766 L69.5326165,17.8384766 L68.9847649,17.8384766 L68.7642922,17.8384766 L68.6690827,18.0373318 L66.5475007,22.4684841 L66.3309422,22.9837863 L67.0037102,23.1191406 L67.0037102,22.6625977 L67.0019897,22.6279367 Z M77.184975,22.5256612 C77.2638904,21.8450152 76.8474665,21.3492724 76.0467209,21.0794559 L75.1106294,20.8016474 C74.4127868,20.5658319 74.1228988,20.2202957 74.1571644,19.727398 C74.1769875,19.3461419 74.3449344,19.0500428 74.6810556,18.8083216 C75.039114,18.5508243 75.4661922,18.4247636 75.9736083,18.431028 C76.4628338,18.4371818 76.843691,18.5693008 77.1318846,18.8240175 C77.4043691,19.0648498 77.5283348,19.37948 77.5082134,19.7991564 L77.8578118,19.465918 L77.2240227,19.465918 L77.2240227,19.815918 L77.573355,19.8375262 C77.6012251,19.38696 77.4533501,19.000774 77.135663,18.7093617 C76.8308583,18.4297665 76.4325748,18.287603 75.9574361,18.2789641 C75.4753544,18.2789063 75.0625829,18.3939233 74.7218526,18.6276293 C74.3603982,18.87555 74.1468935,19.2188558 74.0994054,19.6367511 C74.0235269,20.2892955 74.4284937,20.7532132 75.1950506,20.9836233 L75.8703239,21.1781264 L76.2134102,21.2963698 C76.878201,21.5465596 77.1571146,21.9092782 77.1218925,22.4294812 C77.099228,22.7976725 76.9458812,23.0886906 76.6483613,23.3264218 C76.3340401,23.577578 75.9205563,23.7210315 75.3981619,23.7526918 L75.1905863,23.7575259 C74.8622046,23.751181 74.5571105,23.6853612 74.2873415,23.5612062 C74.0311228,23.4432873 73.8413108,23.2837047 73.7101987,23.0800624 C73.5834023,22.8831233 73.5281208,22.6566042 73.5450064,22.3892488 L73.1957024,22.3671875 L73.1927613,22.7171751 L73.8319215,22.7225462 L73.4848625,22.3725586 C73.4848625,22.8369011 73.6504217,23.2232058 73.9780087,23.5033164 C74.2923967,23.7721409 74.7108114,23.9064741 75.2201915,23.9148936 C75.7203538,23.9149414 76.1517252,23.7996976 76.5121791,23.5658317 C76.8972085,23.3160209 77.1278244,22.9640915 77.1843641,22.5306203 L77.184975,22.5256612 Z M76.4902438,22.4400828 C76.4608456,22.6654691 76.3477149,22.8381112 76.1311788,22.9786019 C75.8900672,23.1350375 75.5909771,23.2149414 75.2259758,23.2149414 C74.8745994,23.2090857 74.6126825,23.1249966 74.4329273,22.9712929 C74.2663712,22.8288754 74.1848625,22.6386885 74.1848625,22.3725586 L74.1848625,22.0254874 L73.8378036,22.022571 L73.1986435,22.0171999 L72.8672854,22.0144153 L72.8463984,22.3451262 C72.820315,22.7581128 72.911842,23.1331501 73.1216358,23.4590001 C73.3271139,23.7781469 73.6206955,24.0249729 73.9946883,24.1970946 C74.3551307,24.36298 74.7554333,24.4493397 75.1926994,24.457363 L75.4278693,24.4519467 C76.0997606,24.4114551 76.6512737,24.2201138 77.0853287,23.8732852 C77.5361848,23.5130317 77.7856661,23.0395717 77.8204322,22.4746228 C77.8781708,21.6219649 77.3943967,20.9928315 76.4502609,20.6377361 L76.0808266,20.5107591 L75.392663,20.3121079 C74.9241679,20.1712641 74.7633851,19.9870763 74.7948248,19.7166948 C74.8190559,19.5034717 74.9206522,19.3401095 75.1177944,19.2048902 C75.3356606,19.0554563 75.6103823,18.9789063 75.9510735,18.9789063 C76.2573365,18.9845325 76.4910454,19.0679527 76.6624801,19.2252086 C76.8210324,19.3706475 76.8897893,19.550211 76.8746904,19.7943098 L76.8517043,20.165918 L77.2240227,20.165918 L77.8578118,20.165918 L78.191433,20.165918 L78.2074102,19.8326795 C78.2374192,19.2067778 78.0319611,18.6853161 77.5954577,18.2995177 C77.1746634,17.9276036 76.6317016,17.7392506 75.9823311,17.7310824 C75.3295037,17.7230228 74.7557781,17.8923693 74.2723609,18.2400183 C73.7670065,18.6034433 73.4891571,19.0933063 73.4584766,19.6850012 C73.400016,20.5251537 73.9122033,21.1356627 74.8991939,21.468824 L75.8354629,21.7466925 C76.3401689,21.9170059 76.5253014,22.1374017 76.4896329,22.4450419 L76.4902438,22.4400828 Z" id="Shape"></path>
    <path d="M34.4113684,8.46673684 C34.4113684,8.09094548 34.2787382,7.80247468 34.0134737,7.60131578 C33.7482092,7.40015688 33.2707403,7.18794848 32.5810526,6.9646842 C31.891365,6.74141993 31.3453704,6.52147476 30.9430526,6.3048421 C29.8466261,5.71241808 29.2984211,4.91442606 29.2984211,3.91084209 C29.2984211,3.38915527 29.4454196,2.92384414 29.7394211,2.51489472 C30.0334225,2.10594531 30.4556288,1.78652745 31.0060526,1.55663156 C31.5564764,1.32673568 32.1743124,1.21178946 32.859579,1.21178946 C33.5492666,1.21178946 34.1637868,1.33668295 34.7031579,1.58647367 C35.242529,1.83626439 35.6614196,2.18883981 35.9598421,2.64421051 C36.2582647,3.09958121 36.4074737,3.6168392 36.4074737,4.19599999 L34.418,4.19599999 C34.418,3.75389251 34.2787382,3.41015911 34.0002105,3.16478946 C33.7216828,2.91941981 33.3304236,2.79673683 32.8264211,2.79673683 C32.3401028,2.79673683 31.9621066,2.89952527 31.6924211,3.10510525 C31.4227355,3.31068523 31.2878947,3.58147199 31.2878947,3.91747367 C31.2878947,4.23136998 31.4459458,4.49441998 31.7620526,4.70663157 C32.0781595,4.91884316 32.5434706,5.11778854 33.158,5.30347367 C34.2897951,5.64389643 35.1143132,6.06610273 35.631579,6.57010526 C36.1488447,7.07410778 36.4074737,7.70189097 36.4074737,8.45347368 C36.4074737,9.28905681 36.0913716,9.94447131 35.4591579,10.4197368 C34.8269442,10.8950024 33.9759001,11.1326316 32.906,11.1326316 C32.1632594,11.1326316 31.4868452,10.9966856 30.8767368,10.7247895 C30.2666285,10.4528934 29.8013174,10.0804234 29.4807895,9.60736842 C29.1602616,9.13431342 29,8.58610838 29,7.96273684 L30.9961053,7.96273684 C30.9961053,9.02821585 31.6327305,9.56094737 32.906,9.56094737 C33.379055,9.56094737 33.7482092,9.46479043 34.0134737,9.27247368 C34.2787382,9.08015693 34.4113684,8.81158067 34.4113684,8.46673684 L34.4113684,8.46673684 M39.9222105,2.06063156 L39.9222105,3.82463157 L41.1490527,3.82463157 L41.1490527,5.23052631 L39.9222105,5.23052631 L39.9222105,8.81157894 C39.9222105,9.07684343 39.9730521,9.26694679 40.0747369,9.38189473 C40.1764216,9.49684268 40.370946,9.55431579 40.6583158,9.55431579 C40.8705274,9.55431579 41.0584203,9.53884226 41.222,9.50789473 L41.222,10.9602105 C40.8462087,11.0751585 40.4593704,11.1326316 40.0614737,11.1326316 C38.717467,11.1326316 38.0322107,10.4540068 38.0056842,9.09673684 L38.0056842,5.23052631 L36.9578947,5.23052631 L36.9578947,3.82463157 L38.0056842,3.82463157 L38.0056842,2.06063156 L39.9222105,2.06063156 M46.3747369,11 C46.2863154,10.8275781 46.2222108,10.6131592 46.1824211,10.3567368 C45.7182082,10.8740026 45.1147406,11.1326316 44.372,11.1326316 C43.6690491,11.1326316 43.0865813,10.9292652 42.624579,10.5225263 C42.1625767,10.1157874 41.931579,9.60295046 41.931579,8.984 C41.931579,8.22357514 42.2134183,7.64000203 42.7771053,7.23326315 C43.3407923,6.82652428 44.1553631,6.62094738 45.2208421,6.61652631 L46.1028421,6.61652631 L46.1028421,6.20536841 C46.1028421,5.87378781 46.0177377,5.6085273 45.8475263,5.40957894 C45.677315,5.21063057 45.4087387,5.11115789 45.0417895,5.11115789 C44.719051,5.11115789 44.4659483,5.18852553 44.2824737,5.34326315 C44.0989991,5.49800076 44.0072632,5.71020917 44.0072632,5.97989473 L42.0907369,5.97989473 C42.0907369,5.5643137 42.2189461,5.17968597 42.4753684,4.82599999 C42.7317908,4.47231401 43.0943135,4.19489573 43.5629474,3.99373683 C44.0315813,3.79257793 44.5576813,3.69199999 45.1412632,3.69199999 C46.0254781,3.69199999 46.7273132,3.91415566 47.2467895,4.35847367 C47.7662658,4.80279169 48.026,5.42725913 48.026,6.23189473 L48.026,9.34210526 C48.0304211,10.0229508 48.1254728,10.5379983 48.3111579,10.8872632 L48.3111579,11 L46.3747369,11 M44.7897895,9.66705263 C45.0727383,9.66705263 45.3335778,9.60405326 45.5723158,9.47805263 C45.8110539,9.352052 45.9878942,9.18294843 46.1028421,8.97073684 L46.1028421,7.73726315 L45.3866316,7.73726315 C44.4272584,7.73726315 43.9166319,8.06883878 43.8547369,8.732 L43.8481053,8.84473684 C43.8481053,9.08347487 43.9321044,9.28020975 44.1001053,9.43494737 C44.2681061,9.58968498 44.4979986,9.66705263 44.7897895,9.66705263 L44.7897895,9.66705263 M52.4824211,9.58747368 C52.8361071,9.58747368 53.1234726,9.4902115 53.3445264,9.29568421 C53.5655801,9.10115692 53.6805263,8.84252793 53.6893685,8.51978947 L55.4865264,8.51978947 C55.4821053,9.00610769 55.349475,9.45152429 55.0886316,9.85605263 C54.8277882,10.260581 54.4707918,10.5744726 54.0176316,10.7977368 C53.5644715,11.0210011 53.0637923,11.1326316 52.515579,11.1326316 C51.4898896,11.1326316 50.6808451,10.8065822 50.0884211,10.1544737 C49.4959971,9.50236516 49.1997895,8.60158469 49.1997895,7.45210526 L49.1997895,7.32610526 C49.1997895,6.22083657 49.4937866,5.33884539 50.0817895,4.68010525 C50.6697924,4.02136512 51.4766265,3.69199999 52.5023158,3.69199999 C53.399794,3.69199999 54.1193131,3.94731322 54.6608948,4.45794736 C55.2024764,4.96858149 55.4776842,5.64831154 55.4865264,6.49715789 L53.6893685,6.49715789 C53.6805263,6.12578761 53.5655801,5.82405378 53.3445264,5.59194736 C53.1234726,5.35984094 52.8316861,5.24378946 52.4691579,5.24378946 C52.0226294,5.24378946 51.6855275,5.40626152 51.4578421,5.73121052 C51.2301568,6.05615951 51.1163158,6.58336477 51.1163158,7.3128421 L51.1163158,7.51178947 C51.1163158,8.25010895 51.2290515,8.78062996 51.4545264,9.10336842 C51.6800012,9.42610687 52.0226293,9.58747368 52.4824211,9.58747368 L52.4824211,9.58747368 M59.1869474,8.12189473 L58.4972632,8.81157894 L58.4972632,11 L56.5807369,11 L56.5807369,0.81389472 L58.4972632,0.81389472 L58.4972632,6.45736841 L58.8686316,5.97989473 L60.705579,3.82463157 L63.0067369,3.82463157 L60.4137895,6.81547368 L63.2322106,11 L61.0305264,11 L59.1869474,8.12189473" id="Stack"></path>
    <path d="M67.9652539,6.69657229 C66.8733669,6.38271005 66.0787769,5.99701892 65.58146,5.53948734 C65.084143,5.08195575 64.8354883,4.51723321 64.8354883,3.84530277 C64.8354883,3.08496044 65.1393996,2.45614023 65.7472314,1.95882329 C66.3550632,1.46150636 67.1452327,1.21285162 68.1177636,1.21285162 C68.7808529,1.21285162 69.3720986,1.34104695 69.8915185,1.59744146 C70.4109384,1.85383597 70.8132065,2.20747826 71.0983349,2.65837895 C71.3834633,3.10927964 71.5260253,3.60216859 71.5260253,4.13706059 L70.2462695,4.13706059 C70.2462695,3.55354205 70.0606073,3.09491219 69.6892773,2.76115727 C69.3179473,2.42740235 68.7941147,2.26052739 68.1177636,2.26052739 C67.4900392,2.26052739 67.0004656,2.39866891 66.6490283,2.6749561 C66.297591,2.95124329 66.121875,3.33472415 66.121875,3.8254102 C66.121875,4.21884315 66.2887499,4.55148793 66.6225049,4.82335453 C66.9562598,5.09522112 67.5242977,5.34387586 68.3266357,5.5693262 C69.1289737,5.79477655 69.7566888,6.04343129 70.2097998,6.31529788 C70.6629108,6.58716447 70.9988709,6.9043374 71.2176904,7.26682619 C71.4365098,7.62931498 71.5459179,8.055896 71.5459179,8.54658205 C71.5459179,9.32902736 71.2409014,9.9556373 70.6308593,10.4264307 C70.0208172,10.897224 69.2052297,11.1326172 68.1840722,11.1326172 C67.520983,11.1326172 66.902109,11.005527 66.3274316,10.7513428 C65.7527543,10.4971586 65.3095963,10.1490419 64.9979443,9.70698243 C64.6862924,9.26492293 64.5304687,8.76319292 64.5304687,8.20177736 L65.8102246,8.20177736 C65.8102246,8.7852959 66.0257254,9.24613601 66.4567334,9.58431153 C66.8877414,9.92248705 67.4635153,10.0915723 68.1840722,10.0915723 C68.8560027,10.0915723 69.3709943,9.95453588 69.7290625,9.68045899 C70.0871307,9.4063821 70.2661621,9.03284743 70.2661621,8.55984376 C70.2661621,8.0868401 70.1003922,7.72104135 69.7688476,7.46243654 C69.437303,7.20383174 68.8361111,6.9485462 67.9652539,6.69657229 L67.9652539,6.69657229 Z M74.6491601,2.08812505 L74.6491601,3.8254102 L75.9885937,3.8254102 L75.9885937,4.77362308 L74.6491601,4.77362308 L74.6491601,9.2229297 C74.6491601,9.51026837 74.7088372,9.72576915 74.8281933,9.86943848 C74.9475494,10.0131078 75.1508937,10.0849414 75.4382324,10.0849414 C75.5796914,10.0849414 75.7741947,10.0584182 76.021748,10.0053711 L76.021748,11 C75.6990445,11.0884119 75.385187,11.1326172 75.080166,11.1326172 C74.5320122,11.1326172 74.1186927,10.9668474 73.8401953,10.6353027 C73.5616978,10.3037581 73.4224511,9.83297181 73.4224511,9.2229297 L73.4224511,4.77362308 L72.1161718,4.77362308 L72.1161718,3.8254102 L73.4224511,3.8254102 L73.4224511,2.08812505 L74.6491601,2.08812505 Z M76.96333,7.3463965 C76.96333,6.6435219 77.1014715,6.0113863 77.3777587,5.44997073 C77.6540459,4.88855517 78.0386319,4.45534336 78.5315282,4.1503223 C79.0244246,3.84530125 79.5869369,3.69279301 80.2190819,3.69279301 C81.1960334,3.69279301 81.9862029,4.03096345 82.5896142,4.70731449 C83.1930254,5.38366552 83.4947265,6.28324311 83.4947265,7.40607424 L83.4947265,7.49227541 C83.4947265,8.19072942 83.3610055,8.81733936 83.0935595,9.37212403 C82.8261135,9.9269087 82.4437377,10.3590154 81.9464208,10.668457 C81.4491039,10.9778987 80.8777505,11.1326172 80.2323437,11.1326172 C79.2598128,11.1326172 78.4718535,10.7944467 77.8684423,10.1180957 C77.2650311,9.44174467 76.96333,8.54658761 76.96333,7.43259768 L76.96333,7.3463965 Z M78.1966698,7.49227541 C78.1966698,8.28798251 78.3812269,8.9267489 78.7503466,9.40859376 C79.1194663,9.89043861 79.6134604,10.1313574 80.2323437,10.1313574 C80.8556476,10.1313574 81.3507468,9.88712322 81.7176562,9.39864747 C82.0845655,8.91017172 82.2680175,8.22609491 82.2680175,7.3463965 C82.2680175,6.5595306 82.0812501,5.92186933 81.7077099,5.43339359 C81.3341696,4.94491784 80.8379652,4.70068363 80.2190819,4.70068363 C79.6134604,4.70068363 79.124992,4.94160244 78.753662,5.4234473 C78.382332,5.90529215 78.1966698,6.59489463 78.1966698,7.49227541 L78.1966698,7.49227541 Z M88.5010253,4.92613285 C88.3153603,4.89518868 88.1142262,4.87971683 87.8976171,4.87971683 C87.0930688,4.87971683 86.5471335,5.2223078 86.2597948,5.90750003 L86.2597948,11 L85.0330858,11 L85.0330858,3.8254102 L86.2266405,3.8254102 L86.2465331,4.65426761 C86.6488072,4.01328134 87.2190554,3.69279301 87.9572948,3.69279301 C88.1960069,3.69279301 88.3772486,3.72373671 88.5010253,3.78562504 L88.5010253,4.92613285 Z M90.7820409,3.8254102 L90.8151952,4.62111332 C91.341246,4.00223002 92.0507408,3.69279301 92.943701,3.69279301 C93.9471761,3.69279301 94.6301478,4.07737901 94.9926365,4.84656253 C95.2313487,4.50175612 95.5418908,4.22326282 95.9242723,4.01107426 C96.3066537,3.7988857 96.7586528,3.69279301 97.280283,3.69279301 C98.8540148,3.69279301 99.6541305,4.52606267 99.6806541,6.19262698 L99.6806541,11 L98.4539451,11 L98.4539451,6.26556643 C98.4539451,5.75277741 98.3368011,5.36929655 98.1025096,5.11511234 C97.868218,4.86092813 97.474791,4.73383793 96.9222166,4.73383793 C96.4668953,4.73383793 96.0889401,4.86976918 95.7883397,5.14163578 C95.4877392,5.41350237 95.3131283,5.77930112 95.2645018,6.239043 L95.2645018,11 L94.0311619,11 L94.0311619,6.29872073 C94.0311619,5.25546031 93.5205909,4.73383793 92.4994334,4.73383793 C91.6948851,4.73383793 91.1445293,5.0764289 90.8483495,5.76162112 L90.8483495,11 L89.6216405,11 L89.6216405,3.8254102 L90.7820409,3.8254102 Z" id="Storm"></path>
  </g>
</svg>
