<?xml version="1.0" encoding="utf-8"?><svg xmlns="http://www.w3.org/2000/svg" viewBox="0 0 270 270"><path d="m159.6 235.3c-11-7-38-5-44-4-6.2 15-19.4 16-29.8 12-14.8-6-27.2-6-42.1-13-4.5-2-6-5-4.7-9 2.4-7 5.5-12 3.5-18-2.2-7-1.3-15 8.1-18 12.1-2 12.5-10 18.2-12 8.1-48 25.4-62 36.4-77.8-0.5-15.7-2.8-28.4-1.8-44 6.9-42.3 60.2-31.3 66.2 2.1 2 11.4 0 20 2 30.9 4 17.8 21 27.8 27 40.8 7 15 17 38 9 52 6 2 7 8 8 14 1 8 12 10 15 16 2 4 0 8-3 11-9 7-20 10-29 18-11 11-35 15-39-1zm-59.2-25c-8.4-8.5-15.1-32.8-26-33-6.7 0-11 12-15.6 12-12.4 2-13.5 7-10.8 13 4.4 10-2.4 13-2.5 19-0.1 8 32.6 12 40.4 15 25.1 10 24.8-13 14.5-26zm93.2 21c9-8 28-13 28-21 0-8-9-8-12-12-3-5-3-14-8-15-9 7.6-24.9 13.9-25-2-7-2-9 2-8 11 3 15-7 35 0 41 9 8 17 5 25-2zm-32-27c3-3-1-13 0-21 1-7 10-9 14-9 12.4-33.8-22.8-58.4-24-82.3-16 18.3-33 25.3-42 2.1-5.8 27.5-25.8 46.3-26.5 76.2 1 12 40.5 18 21.7 38 3.9 4 5 8 8.1 12 16.7 6 42.7 0 48.7-16zm-14-113.4c3-1.4 4-1.7 4-3.7 0-6.8 0-7.8-5-9.4-10-2.2-19-9.9-28-4.9-4.4 2-17.4 13-10.8 14.9 5.3 3.2 11.2 4.6 16.8 4.7 9 0.1 16-9.2 22-10.5 7-0.4-2 3.5-4 4.8-8 6.3-21 10.9-30.5 6.5 8.5 16 26.5 2.7 35.5-2.4zm-34.5-16.7c-7.1-11.9 6.3-18.7 6.5-4.4 1-0.4 2-1 3-1.5-0.9-26.7-22.3-14.2-12.7 9.1 0.8-1.1 1.7-2 3.2-3.2zm36.5 1.9c7-30.8-17-30.4-17.4-6.9l4.6 1.8c1.9-20.6 14.6-8.1 8.8 4 2 0.6 3 1.2 4 1.2zm-33-8.3c1.1-4.3-4.7-3.9-2.9-2.8 0.9 0.9 1.9 1.5 2.9 2.8zm28-0.9c2.7-1.9-4-6.7-2-2.3 2 1.6 1 2.6 2 2.3z" fill="#1e3561"/></svg>
